<?xml version="1.0" encoding="utf-8"?>
<!-- Generator: Adobe Illustrator 18.1.1, SVG Export Plug-In . SVG Version: 6.00 Build 0)  -->
<!DOCTYPE svg PUBLIC "-//W3C//DTD SVG 1.1//EN" "http://www.w3.org/Graphics/SVG/1.1/DTD/svg11.dtd">
<svg version="1.1" id="Layer_1" xmlns="http://www.w3.org/2000/svg" xmlns:xlink="http://www.w3.org/1999/xlink" x="0px" y="0px"
	 viewBox="0 257 1680 604" enable-background="new 0 257 1680 604" xml:space="preserve">
<rect x="-5" y="46" display="none" fill="#4C6268" width="1685" height="1060"/>
<path fill="#BB4D49" d="M1026.8,614.9C896.1,574.5,767.3,529.5,647,434.5c-74.9-59.2-171.2-103.6-263.2-78.2
	c42.6-51.7,107.7-54.6,174.5-51.2c58.5,3,116.4,17.9,169.2,43.5c76.8,37.3,133.9,84.5,212.3,118.2c72.7,31.3,161.6,51.1,240.5,46.2
	s156.5-22,233.8-39.1c75.6-16.7,151.1-33.4,226.7-50.2c10.5-2.3,27,0.9,24.3,11.4c-36.7,11.9-66.7,42.9-77.6,80
	s-2.3,79.4,22.2,109.3c-26.1,5.3-46.8,30.5-46.9,57.2c-0.1,24.8,14,54.4-13.3,68.6c-2.6,1.4-5.4,2.2-8.3,2.6
	c-20.3,2.9-40.8-0.2-60.1-6.7c-19.4-6.5-37.6-16.2-56-25.2C1298.7,659.9,1160.9,656.3,1026.8,614.9z"/>
<g enable-background="new    ">
	<path fill="#FFFFFF" d="M76.5,566.1v161H50.7V357.7h87.9c45.8,0,79.7,8.5,101.6,25.4s32.8,42.4,32.8,76.4
		c0,24.8-6.5,45.7-19.6,62.7s-32.9,29.2-59.5,36.6l100.3,168.3h-30.8l-95.3-161H76.5z M76.5,543.9H147c31.2,0,55.3-6.9,72.5-20.8
		c17.2-13.9,25.8-34.4,25.8-61.5c0-28.1-8.4-48.6-25.3-61.4c-16.8-12.8-44.3-19.2-82.4-19.2H76.5V543.9z"/>
	<path fill="#FFFFFF" d="M383,727.1V357.7h25.8v369.4H383z"/>
	<path fill="#FFFFFF" d="M818.7,538.8c0,62-16.3,108.9-48.8,140.6c-32.5,31.8-80.3,47.6-143.3,47.6h-88.4V357.7H638
		c59,0,103.8,15.4,134.5,46.2C803.3,434.7,818.7,479.7,818.7,538.8z M790.6,539.8c0-52.9-13.4-92.7-40.3-119.4
		c-26.9-26.7-66.3-40-118.4-40h-68v323.9H625C735.5,704.3,790.6,649.5,790.6,539.8z"/>
</g>
<g enable-background="new    ">
	<path fill="#FFFFFF" d="M1138.5,727.1H925.7V357.7h212.7v64.2H1004V503h125.1v64.2H1004v95.3h134.4L1138.5,727.1L1138.5,727.1z"/>
	<path fill="#FFFFFF" d="M1575.7,541.9c0,61.1-15.2,108.1-45.5,141c-30.3,32.8-73.8,49.3-130.4,49.3s-100.1-16.4-130.4-49.3
		c-30.3-32.8-45.5-80-45.5-141.5s15.2-108.4,45.6-140.9c30.4-32.4,74-48.6,130.8-48.6s100.2,16.3,130.3,49
		C1560.6,433.6,1575.7,480.5,1575.7,541.9z M1306.1,541.9c0,41.3,7.8,72.4,23.5,93.2c15.7,20.9,39.1,31.3,70.2,31.3
		c62.5,0,93.7-41.5,93.7-124.6c0-83.2-31.1-124.8-93.2-124.8c-31.2,0-54.7,10.5-70.5,31.5C1314,469.5,1306.1,500.6,1306.1,541.9z"/>
</g>
</svg>
